<?xml version="1.0" standalone="no"?>
<!DOCTYPE svg PUBLIC "-//W3C//DTD SVG 20010904//EN"
 "http://www.w3.org/TR/2001/REC-SVG-20010904/DTD/svg10.dtd">
<svg version="1.0" xmlns="http://www.w3.org/2000/svg"
 width="464.000000pt" height="464.000000pt" viewBox="0 0 464.000000 464.000000"
 preserveAspectRatio="xMidYMid meet">

<g transform="translate(0.000000,464.000000) scale(0.100000,-0.100000)"
fill="#000000" stroke="none">
<path d="M780 4033 c0 -10 4 -56 10 -103 5 -47 55 -596 110 -1220 117 -1328
148 -1668 156 -1731 l6 -47 102 -30 c169 -52 923 -259 1043 -287 111 -26 114
-26 185 -10 148 33 1170 314 1181 325 9 8 55 498 191 2050 47 531 88 989 91
1018 l6 52 -1540 0 c-1461 0 -1541 -1 -1541 -17z m2427 -800 c-4 -86 -10 -160
-14 -164 -5 -4 -204 -93 -443 -199 -239 -105 -436 -193 -438 -195 -2 -2 0 -19
3 -39 l7 -36 414 0 414 0 0 -27 c0 -32 -65 -784 -81 -934 -6 -59 -15 -112 -19
-118 -4 -7 -51 -25 -106 -42 -182 -55 -603 -169 -624 -169 -19 0 -341 86 -505
135 -44 13 -112 33 -152 44 -47 14 -74 28 -77 39 -3 9 -15 109 -26 222 -11
113 -22 224 -26 248 l-5 42 153 0 154 0 19 -150 c18 -147 19 -151 44 -157 14
-3 116 -30 225 -59 l199 -52 161 44 c89 25 189 54 223 65 l61 20 7 57 c9 85
44 487 42 488 -1 1 -295 5 -653 9 l-652 8 -6 36 c-3 20 -8 89 -12 153 l-7 118
39 16 c146 61 659 286 752 330 99 47 113 56 110 76 -2 14 -12 25 -28 29 -14 4
-226 7 -471 8 l-446 1 -12 123 c-7 67 -14 137 -18 155 l-5 32 902 0 903 0 -6
-157z"/>
</g>
</svg>
