<?xml version="1.0" standalone="no"?>
<!DOCTYPE svg PUBLIC "-//W3C//DTD SVG 20010904//EN"
 "http://www.w3.org/TR/2001/REC-SVG-20010904/DTD/svg10.dtd">
<svg version="1.0" xmlns="http://www.w3.org/2000/svg"
 width="300.000000pt" height="300.000000pt" viewBox="0 0 300.000000 300.000000"
 preserveAspectRatio="xMidYMid meet">

<g transform="translate(0.000000,300.000000) scale(0.100000,-0.100000)"
fill="#000000" stroke="none">
<path d="M375 2788 c7 -34 39 -382 95 -1048 55 -652 95 -1075 110 -1188 6 -40
10 -78 10 -83 0 -5 12 -14 28 -20 44 -18 387 -121 645 -194 l237 -68 238 68
c255 73 600 176 644 193 40 16 34 -23 108 832 79 906 109 1246 124 1403 l12
127 -1128 0 -1128 0 5 -22z m1821 -585 c-4 -71 -10 -136 -12 -145 -5 -17 -40
-18 -546 -18 l-540 0 5 -22 c3 -13 9 -78 13 -145 l7 -123 518 0 c325 0 519 -4
519 -10 0 -5 -5 -53 -10 -107 -6 -54 -24 -237 -40 -408 -38 -392 -35 -372 -74
-384 -116 -36 -193 -58 -354 -101 l-183 -49 -182 49 c-235 63 -379 108 -388
121 -3 6 -14 86 -23 177 -10 92 -20 191 -23 220 l-6 52 146 0 145 0 8 -101 c4
-69 12 -106 23 -120 11 -13 65 -33 159 -59 l144 -40 151 41 c84 23 153 43 154
44 3 2 33 322 33 353 l0 22 -484 0 -485 0 -5 43 c-14 105 -65 737 -66 800 l0
37 701 0 701 0 -6 -127z"/>
</g>
</svg>
