<?xml version="1.0" standalone="no"?>
<!DOCTYPE svg PUBLIC "-//W3C//DTD SVG 20010904//EN"
 "http://www.w3.org/TR/2001/REC-SVG-20010904/DTD/svg10.dtd">
<svg version="1.0" xmlns="http://www.w3.org/2000/svg"
 width="1067.000000pt" height="1067.000000pt" viewBox="0 0 1067.000000 1067.000000"
 preserveAspectRatio="xMidYMid meet">

<g transform="translate(0.000000,1067.000000) scale(0.100000,-0.100000)"
fill="#000000" stroke="none">
<path d="M4350 8109 c-777 -90 -1463 -632 -1714 -1358 -74 -212 -103 -368
-113 -602 -20 -493 110 -917 405 -1323 40 -54 72 -109 72 -121 0 -15 -51 -76
-157 -190 -87 -92 -216 -229 -286 -304 -140 -149 -222 -252 -232 -290 -5 -18
0 -31 20 -50 24 -24 31 -26 118 -25 110 2 229 25 752 145 215 50 443 101 508
114 l118 25 137 -39 c383 -108 737 -115 1106 -22 437 111 820 365 1128 746
189 235 355 628 400 950 16 118 16 465 0 580 -31 214 -100 434 -202 640 -77
154 -157 272 -297 436 -376 440 -966 704 -1560 698 -70 -1 -162 -5 -203 -10z
m152 -156 c2 -27 5 -234 7 -461 l3 -414 -354 3 c-194 2 -377 5 -407 7 -53 4
-53 4 -47 33 8 42 109 261 163 354 119 207 316 407 463 472 43 19 141 52 156
52 7 1 14 -19 16 -46z m258 16 c72 -25 198 -102 265 -162 102 -90 219 -256
309 -435 55 -110 116 -253 116 -272 0 -6 -148 -10 -403 -10 l-404 0 -6 122
c-9 155 -9 716 -1 757 6 30 9 32 38 25 17 -3 56 -15 86 -25z m-700 -47 c0 -4
-32 -43 -71 -86 -172 -191 -299 -407 -389 -663 l-33 -93 -324 0 -324 0 51 74
c241 349 574 602 985 747 84 30 105 34 105 21z m1137 -23 c273 -96 556 -272
750 -468 101 -102 263 -305 263 -331 0 -11 -201 -20 -426 -20 l-201 0 -32 93
c-18 50 -61 151 -96 222 -89 183 -172 303 -331 483 -55 62 -49 64 73 21z
m-1682 -951 c4 -3 -5 -64 -19 -135 -38 -191 -54 -299 -71 -493 -8 -96 -15
-181 -15 -187 0 -10 -84 -13 -385 -13 l-385 0 0 40 c0 196 73 499 172 712 l41
89 328 -3 c180 -2 330 -6 334 -10z m995 -408 l0 -420 -490 0 -490 0 6 88 c16
241 44 448 90 655 14 61 22 81 38 87 12 5 207 9 434 9 l412 1 0 -420z m989
401 c17 -31 69 -303 91 -476 18 -142 28 -331 17 -341 -2 -2 -222 -1 -488 3
l-484 8 0 405 0 404 25 7 c14 4 206 7 427 8 386 1 403 0 412 -18z m825 -38
c103 -224 186 -547 186 -727 l0 -58 -379 3 c-209 2 -382 7 -386 10 -3 4 -10
62 -16 130 -13 154 -54 445 -79 564 -11 49 -20 99 -20 112 l0 23 334 0 335 0
25 -57z m-2914 -920 c1 -123 51 -512 87 -676 20 -92 23 -121 14 -130 -9 -9
-100 -13 -335 -15 l-322 -3 -42 90 c-68 145 -124 333 -157 525 -19 110 -20
212 -2 219 6 3 180 6 385 6 348 1 372 0 372 -16z m1100 -404 l0 -421 -312 6
c-172 3 -366 6 -430 6 l-117 0 -15 53 c-37 131 -86 464 -100 685 l-6 92 490 0
490 0 0 -421z m1105 344 c-24 -314 -85 -692 -120 -739 -13 -18 -33 -19 -431
-16 -230 2 -421 5 -424 7 -4 3 -7 186 -6 407 l1 402 25 7 c14 4 235 7 493 8
l468 1 -6 -77z m890 -20 c-15 -212 -78 -461 -165 -650 l-43 -93 -338 0 c-187
0 -339 2 -339 4 0 2 11 52 24 112 30 133 61 338 76 499 6 66 13 144 16 173 l5
52 386 0 385 0 -7 -97z m-2914 -930 c30 -91 108 -262 170 -376 58 -104 124
-194 234 -316 41 -46 74 -86 71 -88 -2 -2 -49 8 -105 23 l-102 28 -107 -17
c-59 -8 -282 -56 -497 -106 -436 -100 -744 -165 -752 -157 -8 8 25 45 308 346
142 151 275 297 295 323 53 68 50 90 -23 184 -76 98 -143 194 -143 204 0 15
38 17 332 18 l296 1 23 -67z m827 61 l92 -7 0 -448 0 -449 -30 0 c-16 0 -59
11 -94 24 -219 79 -413 281 -571 591 -58 115 -115 254 -115 280 0 13 39 15
313 15 173 0 355 -3 405 -6z m1032 -9 c0 -51 -134 -334 -218 -460 -125 -188
-241 -297 -397 -375 -55 -28 -121 -53 -146 -56 l-46 -6 -6 68 c-9 88 -9 761
-1 802 4 17 14 33 23 35 9 3 190 5 404 6 335 1 387 -1 387 -14z m755 3 c11
-11 -20 -58 -108 -168 -196 -244 -431 -428 -716 -563 -84 -40 -294 -117 -318
-117 -3 0 28 35 68 78 94 98 176 200 222 278 57 95 160 313 196 413 l33 92
308 -3 c170 -2 311 -6 315 -10z"/>
<path d="M6700 6609 c0 -65 16 -79 140 -126 156 -58 345 -152 460 -227 170
-112 397 -332 507 -492 68 -100 68 -107 1 -100 -29 3 -170 5 -313 6 l-261 0
-34 93 c-50 137 -180 390 -250 489 -73 103 -205 246 -216 235 -12 -12 15 -136
42 -186 13 -25 51 -84 84 -131 33 -47 84 -132 114 -190 52 -102 126 -276 126
-299 0 -8 -41 -11 -134 -11 -73 0 -155 -3 -181 -7 -42 -5 -49 -10 -61 -39 -8
-18 -14 -47 -14 -63 l0 -31 222 -2 222 -3 13 -45 c29 -97 85 -484 99 -677 l6
-93 -485 0 -485 0 -71 -77 -71 -78 0 -403 0 -403 -429 2 -430 2 -21 96 c-30
134 -29 132 -48 127 -9 -2 -32 -7 -49 -11 -18 -4 -35 -11 -38 -16 -4 -5 2 -47
11 -94 10 -46 14 -88 10 -92 -4 -4 -157 -9 -339 -11 l-332 -2 -20 51 c-23 59
-53 86 -106 92 -67 8 -68 -1 -5 -125 134 -262 235 -405 397 -567 237 -236 516
-411 814 -510 212 -71 406 -101 650 -101 230 0 382 21 595 82 91 26 115 30
180 24 41 -3 269 -50 505 -105 513 -119 705 -158 811 -167 90 -7 125 3 150 41
16 24 16 29 1 60 -22 46 -118 156 -403 460 -134 143 -251 270 -260 283 -15 22
-14 26 37 95 103 139 161 233 225 362 130 266 190 482 206 743 19 321 -6 558
-88 807 -146 444 -435 824 -824 1083 -165 110 -496 258 -619 278 l-41 7 0 -34z
m1279 -1136 c94 -188 159 -431 179 -670 l8 -93 -388 0 -388 0 -1 33 c0 17 -2
46 -4 62 -2 17 -9 82 -15 145 -14 154 -45 356 -70 468 -11 51 -20 96 -20 102
0 7 116 10 335 10 l335 0 29 -57z m-709 -940 c-1 -156 -61 -558 -111 -746
l-10 -38 -424 3 c-233 2 -426 6 -429 9 -4 3 -6 183 -6 400 0 303 3 395 13 401
6 4 227 8 490 8 l477 0 0 -37z m892 32 c8 -8 -21 -246 -42 -345 -25 -116 -79
-276 -130 -387 l-39 -83 -339 0 -339 0 19 78 c29 121 56 300 78 509 11 106 20
202 20 213 0 20 5 20 383 20 211 0 386 -2 389 -5z m-2883 -1105 c98 -249 212
-434 373 -608 38 -41 67 -77 64 -79 -3 -3 -42 7 -88 22 -292 97 -564 270 -790
504 -114 117 -248 283 -248 308 0 13 274 21 511 15 l115 -3 63 -159z m881
-291 l0 -462 -42 7 c-54 9 -143 45 -215 87 -136 81 -331 316 -437 528 -45 90
-116 261 -116 279 0 14 89 17 503 20 l307 2 0 -461z m945 439 c-37 -125 -138
-332 -231 -475 -137 -211 -375 -397 -526 -411 l-58 -5 0 450 c0 247 3 453 7
456 3 4 188 7 410 7 l404 0 -6 -22z m613 15 l152 -6 -22 -39 c-12 -21 -61 -89
-110 -151 -48 -61 -88 -121 -88 -133 0 -26 38 -80 121 -170 65 -70 359 -383
478 -508 l66 -68 -61 6 c-75 7 -277 50 -784 166 -531 122 -502 118 -629 80
-57 -17 -105 -29 -107 -28 -1 2 36 46 83 98 153 170 289 399 381 645 l37 100
90 6 c147 9 233 9 393 2z"/>
</g>
</svg>
