<?xml version="1.0" standalone="no"?>
<!DOCTYPE svg PUBLIC "-//W3C//DTD SVG 20010904//EN"
 "http://www.w3.org/TR/2001/REC-SVG-20010904/DTD/svg10.dtd">
<svg version="1.0" xmlns="http://www.w3.org/2000/svg"
 width="300.000000pt" height="300.000000pt" viewBox="0 0 300.000000 300.000000"
 preserveAspectRatio="xMidYMid meet">

<g transform="translate(0.000000,300.000000) scale(0.100000,-0.100000)"
fill="#000000" stroke="none">
<path d="M1324 2590 c-137 -19 -342 -106 -468 -199 -182 -133 -304 -297 -402
-541 l-39 -95 0 -255 0 -255 39 -95 c128 -318 308 -516 590 -651 363 -174 864
-106 1154 156 146 133 218 221 277 340 197 398 159 833 -102 1170 -39 50 -96
114 -129 144 -126 116 -318 219 -482 260 -89 23 -340 35 -438 21z m461 -113
c335 -109 579 -352 691 -687 27 -82 28 -92 29 -285 0 -183 -2 -207 -24 -275
-66 -212 -212 -426 -369 -542 -67 -50 -223 -128 -327 -165 -78 -27 -86 -28
-285 -28 -199 0 -208 1 -290 29 -104 35 -183 74 -277 138 -188 126 -307 283
-399 523 l-38 100 -4 188 c-4 178 -3 191 22 280 89 310 297 551 586 678 158
70 209 79 420 75 166 -3 193 -6 265 -29z"/>
<path d="M1063 1980 c-66 -40 -77 -110 -27 -170 50 -59 150 -45 180 26 28 66
0 127 -69 153 -38 15 -47 14 -84 -9z"/>
<path d="M1000 1335 l0 -335 115 0 115 0 0 335 0 335 -115 0 -115 0 0 -335z"/>
<path d="M1370 1335 l0 -335 94 0 93 0 5 208 c6 228 12 252 63 277 50 23 95
19 133 -13 l33 -27 6 -223 6 -222 100 0 100 0 -6 238 c-6 260 -15 308 -59 353
-49 48 -86 62 -179 67 -74 4 -91 1 -130 -18 -24 -12 -52 -29 -61 -38 -17 -14
-18 -12 -18 26 l0 42 -90 0 -90 0 0 -335z"/>
</g>
</svg>
