<?xml version="1.0" standalone="no"?>
<!DOCTYPE svg PUBLIC "-//W3C//DTD SVG 20010904//EN"
 "http://www.w3.org/TR/2001/REC-SVG-20010904/DTD/svg10.dtd">
<svg version="1.0" xmlns="http://www.w3.org/2000/svg"
 width="480.000000pt" height="480.000000pt" viewBox="0 0 480.000000 480.000000"
 preserveAspectRatio="xMidYMid meet">

<g transform="translate(0.000000,480.000000) scale(0.100000,-0.100000)"
fill="#000000" stroke="none">
<path d="M2215 4188 c-286 -20 -621 -153 -890 -352 -118 -88 -309 -284 -399
-411 -130 -184 -228 -405 -281 -640 -37 -162 -46 -458 -20 -635 50 -342 145
-570 345 -830 276 -359 627 -582 1070 -682 97 -21 127 -23 375 -22 l270 0 136
37 c357 94 622 248 865 499 237 245 370 484 461 827 l37 136 0 270 c1 300 -7
361 -80 585 -210 645 -828 1146 -1490 1209 -144 14 -288 18 -399 9z m-268
-704 c45 -26 154 -127 170 -157 9 -17 14 -17 89 10 77 27 84 28 294 28 180 0
226 -3 280 -19 36 -10 74 -20 85 -22 14 -3 42 16 95 67 76 72 161 129 192 129
60 0 81 -182 42 -351 -4 -19 2 -35 30 -67 66 -80 105 -230 106 -409 0 -235
-37 -347 -157 -465 -88 -87 -164 -132 -288 -170 -145 -45 -137 -37 -114 -104
30 -85 38 -178 39 -436 l0 -238 -300 0 -300 0 0 145 0 145 -133 0 c-129 0
-136 1 -195 30 -77 39 -150 117 -224 240 -31 52 -83 126 -117 164 -34 38 -61
75 -61 82 0 40 113 17 183 -37 23 -18 62 -57 87 -88 117 -145 180 -181 321
-181 112 0 131 12 148 91 7 35 21 80 32 101 10 20 19 41 19 46 0 5 -37 16 -82
26 -48 10 -123 37 -178 64 -76 36 -109 60 -165 116 -124 126 -160 223 -159
436 2 222 32 348 107 443 l30 38 -13 89 c-8 55 -10 116 -6 162 14 133 41 151
143 92z"/>
</g>
</svg>
