<?xml version="1.0" standalone="no"?>
<!DOCTYPE svg PUBLIC "-//W3C//DTD SVG 20010904//EN"
 "http://www.w3.org/TR/2001/REC-SVG-20010904/DTD/svg10.dtd">
<svg version="1.0" xmlns="http://www.w3.org/2000/svg"
 width="1440.000000pt" height="1440.000000pt" viewBox="0 0 1440.000000 1440.000000"
 preserveAspectRatio="xMidYMid meet">

<g transform="translate(0.000000,1440.000000) scale(0.100000,-0.100000)"
fill="#000000" stroke="none">
<path d="M2870 12701 c-707 -6 -814 -9 -875 -24 -232 -56 -415 -154 -568 -303
-191 -187 -314 -431 -337 -663 -18 -189 -20 -522 -20 -3888 l0 -3413 -280 0
c-258 0 -283 -2 -331 -20 -114 -45 -168 -107 -204 -235 -23 -79 -15 -188 30
-410 69 -343 167 -570 355 -820 278 -369 660 -623 1108 -736 135 -34 221 -45
417 -50 77 -2 2422 -4 5210 -4 l5070 0 145 32 c135 30 204 50 354 102 130 46
376 191 506 300 168 139 331 324 448 506 29 46 142 285 167 355 105 293 146
670 88 800 -24 54 -97 124 -161 153 -44 21 -65 22 -339 25 l-293 3 -1 2677 c0
1472 -4 3132 -9 3687 l-8 1010 -36 108 c-20 59 -47 129 -60 155 -39 77 -139
222 -201 289 -164 182 -449 323 -706 352 -60 7 -490 11 -1174 11 -594 0 -2522
1 -4285 3 -1763 2 -3567 1 -4010 -2z m9471 -650 c42 -5 78 -19 139 -56 90 -54
145 -114 202 -220 l32 -60 7 -630 c4 -346 8 -1991 8 -3654 l1 -3024 -1847 6
c-1120 3 -1858 9 -1873 15 -48 18 160 22 1585 25 1540 4 1439 0 1503 60 l32
31 0 2091 0 2091 -32 31 c-44 41 -70 53 -113 53 -43 0 -81 -18 -115 -55 l-25
-27 -6 -1974 c-4 -1086 -9 -1977 -11 -1979 -2 -3 -641 -8 -1420 -11 l-1416 -7
-7 69 c-3 38 -10 99 -16 136 -5 37 -9 71 -9 76 0 6 493 12 1238 16 l1237 8 48
46 47 46 0 1392 0 1392 45 50 c25 28 61 77 80 108 32 53 35 65 35 136 0 107
-25 168 -100 251 l-60 65 0 1200 0 1200 148 -5 c81 -3 148 -7 150 -8 1 -1 7
-366 12 -811 6 -445 13 -824 16 -842 7 -38 41 -67 95 -83 32 -10 46 -9 82 5
25 9 51 24 60 34 34 38 37 123 37 1029 l0 894 -37 45 -37 44 -226 0 c-124 0
-242 3 -262 6 l-36 6 -4 133 c-3 117 -6 137 -24 162 -26 35 -55 49 -119 58
-68 10 -2725 14 -3000 5 -192 -6 -234 -10 -330 -35 -278 -70 -413 -153 -687
-423 l-168 -165 -177 174 c-273 267 -423 357 -703 420 -134 30 -569 42 -1320
35 -355 -3 -665 -9 -690 -15 -81 -17 -124 -93 -101 -178 15 -56 39 -82 86 -94
45 -12 318 -17 1245 -24 703 -5 702 -5 858 -65 168 -64 240 -118 450 -328
l192 -194 0 -549 0 -549 -367 -1 c-203 0 -570 -4 -818 -8 -510 -8 -501 -6
-535 -84 -25 -57 -33 -250 -23 -542 8 -212 10 -233 30 -266 12 -19 33 -41 47
-48 34 -18 34 -29 42 -556 3 -247 9 -477 14 -510 11 -81 61 -216 115 -307 60
-103 188 -236 295 -306 47 -31 182 -106 299 -166 117 -60 216 -117 221 -126 6
-11 -1 -45 -21 -104 -16 -48 -29 -92 -29 -97 0 -6 -6 -25 -14 -42 -7 -18 -42
-119 -77 -225 l-64 -193 -30 6 c-16 3 -689 9 -1494 12 l-1464 5 6 786 c4 432
9 787 12 791 3 3 70 -60 150 -139 l144 -143 -34 -41 c-53 -65 -58 -98 -53
-332 4 -235 9 -255 75 -295 37 -23 43 -24 373 -27 l335 -4 115 -112 c211 -206
265 -252 315 -266 58 -16 178 -9 226 14 44 21 110 83 147 138 24 38 27 50 27
132 0 97 -21 165 -66 213 l-21 21 20 11 c12 6 36 11 54 11 50 0 118 39 140 80
34 65 14 149 -46 194 -24 19 -48 21 -263 26 l-237 6 -283 288 c-156 158 -283
294 -283 303 0 8 11 24 24 34 13 11 34 39 46 63 19 40 20 49 9 85 -6 22 -26
54 -43 70 -27 26 -44 33 -106 41 -41 5 -114 10 -161 10 l-86 0 -11 81 c-12 98
-30 126 -98 153 -27 11 -51 21 -54 23 -2 2 137 145 310 318 l314 314 29 -45
c47 -77 57 -79 397 -79 324 0 354 5 394 58 20 27 21 43 24 286 l3 258 -42 37
c-49 42 -95 53 -149 37 -37 -11 -90 -60 -90 -84 -3 -76 -19 -279 -22 -283 -7
-6 -338 -7 -344 -1 -3 3 117 130 268 284 150 153 289 298 310 323 71 89 87
227 36 330 l-24 48 44 6 c59 8 103 36 130 84 27 49 28 91 1 143 -34 68 -57 73
-334 74 -222 0 -242 -1 -274 -20 -78 -46 -97 -113 -57 -196 l27 -54 -308 -304
c-169 -167 -318 -310 -330 -318 -16 -11 -69 -17 -190 -23 -92 -4 -180 -12
-195 -18 -58 -23 -74 -81 -82 -297 l-7 -150 -95 -93 c-53 -51 -98 -92 -100
-89 -2 2 -7 562 -11 1245 l-6 1240 269 4 c234 3 274 5 304 21 55 28 75 63 75
129 0 65 -20 100 -76 133 -32 19 -52 20 -389 20 -335 0 -357 -1 -394 -20 -72
-36 -81 -58 -84 -210 l-4 -133 -36 -6 c-20 -3 -138 -6 -262 -6 l-226 0 -37
-44 -37 -45 0 -892 c0 -960 2 -1003 47 -1039 46 -36 96 -45 146 -26 77 29 79
33 88 233 4 98 10 474 12 836 3 362 7 660 9 661 1 2 69 6 151 9 l147 5 0
-1220 0 -1220 -44 -49 c-58 -64 -78 -110 -84 -190 -7 -101 10 -156 74 -233
l54 -65 0 -1409 0 -1408 48 -46 47 -46 1238 -8 1239 -7 -6 -31 c-6 -35 -26
-211 -26 -238 0 -17 -37 -18 -638 -18 -351 0 -990 3 -1419 7 l-781 6 -6 851
c-4 468 -8 1358 -9 1978 l-2 1126 -25 27 c-34 37 -72 55 -115 55 -43 0 -69
-12 -112 -53 l-33 -31 0 -2091 0 -2091 32 -31 c64 -60 -37 -56 1503 -60 1295
-3 1614 -7 1602 -19 -13 -13 -198 -15 -1874 -21 l-1823 -6 0 3643 0 3643 31
60 c67 131 134 202 256 269 l68 38 5110 -1 c2811 0 5135 -4 5166 -8z m-1111
-1968 l0 -1238 -106 106 -106 106 -8 162 c-13 247 -20 253 -260 259 l-155 4
-337 335 -336 336 20 42 c34 70 8 143 -65 183 -28 15 -63 17 -272 17 -279 -1
-300 -5 -336 -76 -55 -108 17 -214 154 -227 40 -4 47 -8 41 -21 -62 -148 -61
-232 5 -332 17 -24 156 -173 310 -331 155 -158 281 -292 281 -298 0 -6 -65
-10 -184 -10 l-183 0 -7 38 c-3 20 -6 71 -6 112 -1 146 -25 199 -101 221 -53
16 -99 4 -148 -37 l-42 -37 3 -258 c4 -356 -13 -340 353 -347 263 -4 395 6
427 34 11 11 29 38 40 62 10 23 24 42 30 42 15 0 648 -631 643 -640 -3 -4 -22
-11 -42 -15 -50 -9 -90 -31 -108 -59 -8 -12 -21 -60 -27 -104 l-12 -82 -86 0
c-47 0 -119 -5 -160 -10 -62 -8 -79 -15 -106 -41 -17 -16 -37 -48 -43 -71 -11
-36 -10 -45 11 -87 13 -25 40 -56 59 -69 19 -13 35 -27 37 -32 2 -5 -124 -137
-280 -294 l-283 -285 -255 -7 c-283 -7 -274 -5 -322 -82 -39 -64 -5 -178 60
-203 14 -6 59 -14 101 -19 41 -6 76 -12 78 -13 2 -2 -12 -30 -32 -62 -47 -79
-58 -117 -53 -188 11 -157 128 -275 283 -285 134 -8 168 12 405 244 l145 142
310 4 c334 5 372 11 406 58 30 40 38 112 36 327 l-2 201 -34 48 -33 47 138
136 139 136 6 -285 c3 -157 7 -507 8 -777 l1 -493 -1117 -1 c-1430 -1 -1890
-9 -2026 -39 -55 -11 -122 -30 -150 -40 -81 -31 -116 -27 -159 18 -60 62 -62
71 -66 265 -6 261 7 284 218 391 291 148 581 303 640 342 124 81 273 257 331
391 12 26 33 80 46 118 25 70 26 73 35 560 11 586 11 588 44 605 14 8 35 30
47 49 20 33 22 53 30 301 5 151 5 312 -1 375 -16 199 -26 206 -306 216 -111 4
-304 9 -431 10 -126 2 -258 5 -291 7 l-62 4 11 31 c5 18 14 41 18 52 4 11 11
31 15 45 3 14 48 149 98 300 211 630 210 626 196 701 -15 78 -45 133 -100 182
-73 66 -104 77 -207 77 -64 0 -99 -5 -129 -19 -45 -21 -124 -87 -124 -104 0
-6 -6 -18 -14 -26 -8 -9 -46 -110 -86 -226 -83 -243 -80 -236 -136 -297 -50
-54 -48 -44 -48 -168 -1 -89 -5 -106 -66 -290 l-65 -195 -6 220 c-4 121 -7
350 -8 509 l-1 288 153 161 c83 88 184 186 222 216 99 79 221 141 370 189 65
21 485 27 2008 30 l1117 2 0 -1237z m-3996 -774 c4 -3 -17 -73 -45 -155 -28
-82 -53 -157 -56 -166 -5 -17 -50 -18 -769 -18 l-764 0 0 176 0 176 814 -4
c448 -2 817 -6 820 -9z m1566 -164 l0 -175 -500 0 -500 0 0 25 c0 13 6 39 14
57 8 18 29 79 46 136 18 56 37 105 43 109 29 18 104 21 485 22 l412 1 0 -175z
m-1821 -501 c17 -4 31 -13 31 -20 0 -13 -193 -599 -232 -701 l-19 -53 -338 0
-338 0 -43 -51 -43 -51 7 -202 c3 -110 9 -227 12 -258 4 -33 2 -58 -3 -58 -39
0 -179 153 -227 247 -58 115 -59 126 -63 661 l-5 492 615 0 c338 0 629 -3 646
-6z m1699 -486 c-5 -535 -6 -545 -64 -661 -47 -93 -188 -247 -227 -247 -5 0
-7 24 -4 58 4 31 9 148 13 258 l7 202 -43 51 -43 50 -437 3 c-241 2 -442 6
-446 10 -4 5 30 117 75 250 45 134 86 257 91 273 8 31 27 84 41 120 4 11 11
31 14 45 4 14 11 37 17 53 l10 27 500 0 500 0 -4 -492z m-2032 -603 c8 -20
-148 -495 -163 -495 -18 0 -81 78 -108 135 -52 106 -94 347 -64 366 8 5 85 9
172 9 131 0 159 -3 163 -15z m1438 9 c23 -9 20 -79 -8 -206 -32 -138 -65 -205
-149 -294 -93 -99 -134 -128 -348 -239 -101 -53 -228 -126 -282 -162 l-98 -65
-52 36 c-29 20 -65 47 -82 60 l-30 24 63 184 c35 100 65 194 68 208 3 14 11
39 19 55 7 17 29 82 50 145 20 63 48 148 62 188 l25 72 373 0 c205 0 380 -3
389 -6z m-4299 -504 c38 -38 66 -72 63 -76 -6 -6 -138 -8 -143 -2 -3 3 -7 99
-6 131 1 9 4 17 9 17 4 0 39 -31 77 -70z m6915 -20 l0 -60 -55 0 c-32 0 -55 4
-55 10 0 13 89 110 101 110 5 0 9 -27 9 -60z m-3624 -750 c58 -53 99 -67 159
-56 21 4 55 25 89 56 29 28 56 50 59 50 8 0 15 -64 22 -180 2 -52 9 -109 14
-127 19 -67 88 -180 142 -234 66 -66 114 -95 424 -254 296 -152 400 -209 453
-250 93 -71 177 -191 214 -305 19 -58 22 -94 26 -324 l4 -259 -68 6 c-38 4
-124 7 -190 7 l-122 0 -48 78 c-29 47 -87 116 -148 177 -107 106 -144 130
-441 285 -158 82 -208 115 -302 198 -95 84 -110 92 -165 92 -50 0 -69 -11
-169 -99 -91 -80 -145 -115 -344 -219 -88 -46 -191 -102 -230 -125 -91 -52
-245 -206 -309 -309 l-48 -78 -122 0 c-66 0 -152 -3 -190 -7 l-68 -6 4 259 c4
237 6 264 27 324 27 77 53 124 116 208 50 66 168 153 296 218 65 32 73 34 196
36 118 3 131 5 174 30 53 31 110 91 138 146 19 37 48 67 144 145 106 86 173
227 182 384 7 121 15 183 22 183 3 0 30 -22 59 -50z m-1008 -543 c21 -14 -11
-42 -108 -94 -130 -71 -191 -115 -285 -208 l-85 -85 -1210 0 -1210 0 0 201 0
200 1443 -3 c793 -2 1448 -7 1455 -11z m5162 -187 l0 -200 -1211 0 -1212 0
-76 78 c-82 84 -174 150 -316 227 -158 85 -156 79 -30 86 61 3 725 6 1478 7
l1367 2 0 -200z m-3966 -716 c57 -42 128 -83 417 -239 114 -62 244 -152 244
-170 0 -15 -541 -24 -1030 -18 -231 3 -422 7 -424 9 -8 7 34 47 89 83 60 41
167 102 355 202 66 35 156 90 200 121 44 32 81 58 83 58 2 0 32 -21 66 -46z
m-1971 -1426 l6 -362 46 -45 45 -46 1678 -3 c922 -2 1738 1 1813 6 201 12 207
19 220 250 5 84 8 156 8 160 -1 4 -1 96 0 205 l1 197 2163 0 c1189 0 2179 -3
2200 -6 30 -5 37 -11 37 -29 0 -59 -116 -304 -201 -425 -77 -109 -239 -267
-342 -334 -179 -117 -365 -190 -522 -204 -173 -16 -652 -17 -5605 -17 l-4835
1 -100 27 c-119 33 -277 95 -362 143 -125 70 -317 244 -418 379 -84 113 -205
376 -205 446 0 19 56 19 2183 19 l2184 0 6 -362z m3500 101 c4 -51 7 -127 7
-171 l0 -78 -1600 0 -1600 0 0 144 c0 80 4 156 10 170 l9 26 1584 0 1584 0 6
-91z"/>
<path d="M5410 10637 c-74 -26 -95 -100 -88 -310 4 -139 18 -176 78 -212 33
-19 52 -20 270 -20 219 0 237 1 270 21 54 31 80 77 80 140 0 45 -5 59 -29 87
-39 43 -98 57 -247 57 l-114 0 0 33 c-1 93 -45 177 -106 203 -40 17 -67 17
-114 1z"/>
<path d="M3552 10591 c-64 -6 -76 -11 -107 -41 -50 -49 -58 -99 -53 -336 5
-223 10 -245 73 -284 29 -18 47 -22 91 -18 47 4 61 10 92 41 l36 36 7 118 c4
65 8 133 8 151 l1 32 113 0 114 0 6 -122 c8 -147 17 -185 57 -223 26 -25 40
-30 96 -33 l65 -4 45 48 45 49 -3 241 c-3 238 -3 241 -28 277 -44 65 -73 71
-345 73 -132 1 -273 -1 -313 -5z"/>
<path d="M6325 10391 c-56 -10 -91 -36 -109 -82 -33 -83 -7 -156 69 -194 37
-18 58 -20 284 -18 l244 2 33 32 c41 40 58 88 49 137 -8 46 -42 97 -75 113
-29 14 -431 22 -495 10z"/>
<path d="M4613 8022 c-76 -7 -85 -10 -118 -42 -19 -19 -40 -51 -46 -71 -16
-52 15 -118 72 -156 l43 -28 235 0 c205 0 240 2 268 17 72 40 100 125 64 195
-39 77 -55 83 -258 87 -98 2 -215 1 -260 -2z"/>
<path d="M8864 10631 c-17 -10 -40 -31 -52 -45 -21 -27 -42 -104 -42 -155 l0
-28 -138 -5 c-116 -4 -145 -8 -184 -27 -97 -46 -98 -185 -1 -251 36 -25 37
-25 277 -25 236 0 242 1 279 23 62 39 71 67 74 237 4 192 -9 238 -77 273 -54
27 -95 28 -136 3z"/>
<path d="M10308 10591 c-51 -7 -89 -31 -122 -75 -20 -26 -21 -43 -24 -270 l-4
-243 48 -47 48 -48 63 4 c53 3 68 9 93 33 40 38 49 76 57 223 l6 122 114 0
113 0 1 -37 c0 -21 4 -89 8 -150 6 -100 10 -115 32 -139 52 -56 123 -69 189
-36 63 31 71 60 77 260 8 258 -10 352 -74 381 -57 26 -488 41 -625 22z"/>
<path d="M9313 7993 c-67 -60 -82 -132 -40 -193 45 -67 70 -75 279 -78 102 -2
217 1 255 7 58 9 73 15 100 45 17 19 37 53 44 76 12 39 11 46 -12 89 -41 79
-63 84 -344 89 l-240 3 -42 -38z"/>
<path d="M7145 5970 c-31 -13 -66 -50 -81 -86 -19 -45 -19 -253 0 -297 23 -54
59 -80 120 -85 62 -5 116 16 141 54 9 14 21 66 27 115 24 193 -35 311 -154
308 -18 0 -42 -4 -53 -9z"/>
</g>
</svg>
