<?xml version="1.0" standalone="no"?>
<!DOCTYPE svg PUBLIC "-//W3C//DTD SVG 20010904//EN"
 "http://www.w3.org/TR/2001/REC-SVG-20010904/DTD/svg10.dtd">
<svg version="1.0" xmlns="http://www.w3.org/2000/svg"
 width="683.000000pt" height="683.000000pt" viewBox="0 0 683.000000 683.000000"
 preserveAspectRatio="xMidYMid meet">

<g transform="translate(0.000000,683.000000) scale(0.100000,-0.100000)"
fill="#000000" stroke="none">
<path d="M1400 5981 c-439 -6 -433 -6 -536 -66 -108 -64 -197 -172 -243 -299
l-26 -71 -3 -1716 -3 -1716 -135 -6 c-155 -7 -196 -21 -229 -77 -54 -93 16
-396 132 -572 125 -190 374 -358 580 -391 61 -9 623 -12 2558 -12 2345 0 2484
1 2545 18 187 51 384 186 502 346 95 126 167 320 175 468 7 109 2 132 -37 177
l-30 34 -154 7 -153 7 -7 1737 -8 1736 -22 50 c-75 166 -187 271 -346 326
l-65 22 -2045 2 c-1125 1 -2227 -1 -2450 -4z m4541 -326 c23 -16 57 -50 75
-75 l31 -45 6 -1712 5 -1713 -2589 0 -2589 0 1 1438 c1 790 4 1565 8 1722 6
277 7 286 29 318 33 45 87 84 130 93 20 4 1120 6 2444 5 l2406 -1 43 -30z
m402 -3852 c83 -7 84 -13 25 -126 -61 -120 -161 -216 -295 -285 l-101 -52
-2399 0 c-1360 0 -2452 5 -2523 10 -69 5 -144 16 -167 24 -65 23 -185 117
-246 193 -52 63 -127 201 -127 230 0 11 549 13 2883 13 1585 0 2912 -3 2950
-7z"/>
<path d="M3800 5203 c-48 -19 -83 -105 -295 -728 -162 -479 -499 -1496 -544
-1649 -37 -122 -25 -172 53 -207 85 -38 134 -21 177 63 44 87 278 769 557
1628 238 731 245 753 232 800 -19 70 -113 119 -180 93z"/>
<path d="M1799 4394 l-429 -429 0 -64 0 -63 373 -372 c205 -204 398 -393 429
-419 80 -68 143 -75 206 -22 36 31 60 111 43 144 -6 11 -167 181 -357 377
l-345 357 58 61 c32 33 180 184 329 336 149 151 283 294 298 317 23 34 26 48
21 75 -18 84 -50 112 -139 123 l-59 7 -428 -428z"/>
<path d="M4595 4806 c-39 -17 -81 -66 -90 -105 -14 -65 15 -99 494 -583 l215
-218 -315 -317 c-173 -175 -331 -338 -351 -363 -45 -57 -55 -103 -31 -150 38
-73 124 -100 191 -60 18 11 217 203 442 427 l410 406 0 56 0 55 -217 219
c-384 386 -617 613 -643 627 -35 19 -70 21 -105 6z"/>
</g>
</svg>
