<?xml version="1.0" standalone="no"?>
<!DOCTYPE svg PUBLIC "-//W3C//DTD SVG 20010904//EN"
 "http://www.w3.org/TR/2001/REC-SVG-20010904/DTD/svg10.dtd">
<svg version="1.0" xmlns="http://www.w3.org/2000/svg"
 width="1600.000000pt" height="840.000000pt" viewBox="0 0 1600.000000 840.000000"
 preserveAspectRatio="xMidYMid meet">

<g transform="translate(0.000000,840.000000) scale(0.100000,-0.100000)"
fill="#000000" stroke="none">
<path d="M7946 7508 c-103 -176 -1193 -2057 -1583 -2733 -560 -969 -1086
-1881 -1290 -2235 -93 -162 -356 -617 -583 -1010 -227 -393 -414 -720 -417
-727 -4 -11 725 -13 3927 -13 3202 0 3931 2 3927 13 -3 7 -190 334 -417 727
-227 393 -490 848 -583 1010 -204 354 -730 1266 -1290 2235 -390 676 -1480
2557 -1583 2733 -26 45 -51 82 -54 82 -3 0 -28 -37 -54 -82z"/>
</g>
</svg>
